<?xml version="1.0" encoding="UTF-8"?>
<svg id="Layer_2" data-name="Layer 2" xmlns="http://www.w3.org/2000/svg" viewBox="0 0 400.44674 208.55829">
  <defs>
    <style>
      .cls-1 {
        fill: #1d1d1b;
      }
    </style>
  </defs>
  <g id="Layer_1-2" data-name="Layer 1">
    <g>
      <path class="cls-1" d="M399.32483,101.10895c-1.03503-.55896-2.32703-.16699-2.88202.86804-11.59802,21.59198-34.01398,35.005-58.50098,35.005-36.59302,0-66.36304-29.77002-66.36304-66.362S301.34882,4.25696,337.94183,4.25696c21.81299,0,42.24298,10.73199,54.65295,28.70801.66504.96698,1.99103,1.21301,2.96002.54199.96698-.66699,1.211-1.99298.54199-2.95996-13.203-19.12805-34.94299-30.547-58.15497-30.547-24.79303,0-46.62732,12.85364-59.2312,32.23584C265.75256,12.27521,243.35101.00586,219.42371.00586,180.48071.00586,148.79767,31.67889,148.79767,70.61084c0,12.56494,3.31354,24.36438,9.08978,34.59741-12.01257,19.62463-33.60205,31.77161-56.64203,31.77161-35.87915,0-65.17987-28.62299-66.31476-64.23138h98.40137c1.17499,0,2.12897-.953,2.12897-2.12903,0-1.17499-.95398-2.12799-2.12897-2.12799H34.93024C36.05615,32.8866,65.36041,4.26288,101.24542,4.26288c15.40399,0,30.41394,5.39197,42.26697,15.18396.90503.74805,2.24799.62402,2.99603-.28595.74896-.90601.62097-2.24805-.28601-2.99603C133.61041,5.7439,117.63641.00586,101.24542.00586,71.88208.00586,46.65479,18.01715,36.01599,43.56537c-.02197.04248-.05029.07959-.0697.12408-8.79327,20.15002-28.59442,24.44556-30.43158,24.802h-3.38568c-1.17603,0-2.12903.953-2.12903,2.12799,0,1.17603.953,2.12903,2.12903,2.12903h28.54462c1.1369,37.95575,32.34558,68.4884,70.57178,68.4884,23.79224,0,46.12848-12.17236,59.1123-31.97357,12.63123,19.23657,34.38361,31.97357,59.06598,31.97357.34595,0,.69025-.01221,1.03552-.01733.16901.03534.34357.05719.52777.0495,22.91797-.54498,35.35901,16.67401,35.48199,16.849.41498.58905,1.07501.90405,1.745.90405.422,0,.84802-.125,1.21899-.38605.96204-.67395,1.19598-1.99695.52399-2.95996-.00586-.0083-.02142-.02991-.03009-.04218-.00024-.00049-.00024-.00104-.00049-.00153l-9.66492-21.52509c11.44666-5.56647,21.35767-14.18677,28.44452-25.11066,12.60315,19.38599,34.4397,32.24231,59.23584,32.24231,26.05695,0,49.90997-14.27197,62.25098-37.24799.55597-1.03497.16901-2.32599-.86798-2.88202ZM31.76892,58.00665c-.61884,3.41711-.98975,6.91724-1.0957,10.4848h-12.64905c4.36298-2.22693,9.30823-5.55518,13.74475-10.4848ZM153.05469,70.61084c0-36.58398,29.77301-66.34796,66.36902-66.34796,23.18207,0,44.84174,12.25543,56.8205,32.05182-3.54858,6.35669-6.14386,13.31146-7.59003,20.6767-5.98053-21.57434-25.77948-37.46381-49.23145-37.46381-28.17206,0-51.09302,22.92096-51.09302,51.09296s22.92096,51.09302,51.09302,51.09302c6.69928,0,13.09503-1.3092,18.96277-3.66382l6.25098,13.92188c-7.89246,3.25214-16.44324,5.00824-25.21277,5.00824-36.59601,0-66.36902-29.77301-66.36902-66.36902ZM267.76019,78.40405c-2.52704,15.75049-12.59222,29.00635-26.36603,35.95447l-20.02979-44.60913c-.48102-1.073-1.74402-1.55402-2.81396-1.07001-1.07202.48102-1.55103,1.74097-1.06903,2.81396l20.03174,44.61353c-5.60077,2.23572-11.70135,3.4787-18.09039,3.4787-26.99902,0-48.96405-21.966-48.96405-48.96503s21.96503-48.96399,48.96405-48.96399c24.34973,0,44.59698,17.86835,48.3374,41.18005-.2818,2.5575-.43835,5.15204-.43835,7.78339,0,2.63159.15662,5.22632.43842,7.78406ZM251.44232,147.12921c-3.79254-2.94855-8.83978-5.99377-15.12585-7.96667,3.44196-.85345,6.80737-1.95587,10.06464-3.30536l5.06122,11.27203ZM248.51825,130.22485l-6.25153-13.92303c12.77612-6.41553,22.50043-18.02875,26.38763-32.05231,1.4455,7.36127,4.03876,14.3125,7.58453,20.66632-6.69232,11.06689-16.40363,19.7785-27.72064,25.30902Z"/>
      <polygon class="cls-1" points="162.91132 191.91425 153.24231 175.91125 150.0083 200.67426 154.11829 200.67426 155.73529 186.32129 162.91132 198.48425 170.08826 186.32129 171.73926 200.67426 175.84827 200.67426 172.61426 175.91125 162.91132 191.91425"/>
      <path class="cls-1" d="M185.68481,184.80566c-2.89801,0-5.15405,1.01001-6.57001,1.85303l1.48199,2.56097c.67401-.505,2.52698-1.44897,4.71698-1.44897,1.92102,0,3.30298.67401,3.30298,2.56097v1.88702c-.97797-.54004-2.45996-1.07904-4.48199-1.07904-3.841,0-6.06396,1.92004-6.06396,4.91803,0,3.16797,2.49298,4.95398,5.42401,4.95398,1.98798,0,4.14398-.80896,5.12195-2.45898v2.12201h3.57001v-11.05103c0-3.06598-2.729-4.81799-6.50195-4.81799ZM188.61676,194.50964c0,2.35706-1.82098,3.77301-3.97699,3.77301-1.68396,0-2.896-.87695-2.896-2.42596,0-1.44904.97601-2.32501,3.26703-2.32501,1.315,0,2.49298.23499,3.60596.74097v.237Z"/>
      <path class="cls-1" d="M208.08899,187.77118c-1.146-1.88702-3.03302-2.93201-5.28998-2.93201-4.04303,0-7.547,2.96503-7.547,8.086,0,5.08801,3.50397,8.086,7.547,8.086,2.25696,0,4.14398-1.04498,5.28998-2.93201v2.59503h3.672v-26.27899h-3.672v13.37598ZM203.67499,197.84418c-2.52698,0-4.64899-1.81903-4.64899-4.91901s2.12201-4.91901,4.64899-4.91901c2.12299,0,4.414,1.75201,4.414,4.91901,0,3.133-2.29102,4.91901-4.414,4.91901Z"/>
      <path class="cls-1" d="M223.18073,184.83966c-4.91901,0-8.086,3.20099-8.086,8.086,0,4.85101,3.133,8.086,7.91797,8.086,3.57001,0,6.13098-1.38098,7.78198-4.211l-3.16699-1.24799c-.97601,1.65198-2.45898,2.46002-4.44696,2.46002-2.52704,0-4.11005-1.51605-4.34601-4.24603h12.06097c0-.16797.034-.60498.034-1.00897,0-4.95404-2.86401-7.91803-7.74896-7.91803ZM218.93573,191.24066c.43799-2.35797,1.88696-3.604,4.21198-3.63898,2.18896,0,3.63898,1.44897,3.80701,3.63898h-8.01898Z"/>
      <path class="cls-1" d="M246.69403,176.78668c-1.24701,0-2.29102.97699-2.29102,2.22498,0,1.24603,1.04401,2.22198,2.29102,2.22198,1.27997,0,2.32495-.97595,2.32495-2.22198,0-1.24799-1.04498-2.22498-2.32495-2.22498Z"/>
      <rect class="cls-1" x="244.909" y="185.1767" width="3.604" height="15.49799"/>
      <path class="cls-1" d="M261.8548,184.83899c-2.12299,0-3.672.91101-4.65002,2.729v-2.39203h-3.672v15.49799h3.672v-9.43298c0-2.12201,1.34802-3.46997,3.43701-3.46997,1.95398,0,2.86298,1.21295,2.86298,3.46997v9.43298h3.74103v-9.87195c0-3.70502-1.88702-5.96301-5.39099-5.96301Z"/>
      <path class="cls-1" d="M289.4115,177.09015h-7.10901v23.58405h3.97601v-8.92902h3.133c5.12103,0,8.48999-2.83002,8.48999-7.34302,0-4.51599-3.36896-7.31201-8.48999-7.31201ZM289.4115,188.24115h-3.133v-7.64697h3.133c2.729,0,4.54901,1.31299,4.54901,3.80798,0,2.526-1.82001,3.83899-4.54901,3.83899Z"/>
      <path class="cls-1" d="M307.63788,184.83905c-4.75,0-8.35498,3.302-8.35498,8.086,0,4.75,3.60498,8.086,8.35498,8.086s8.35498-3.336,8.35498-8.086c0-4.784-3.60498-8.086-8.35498-8.086ZM307.63788,197.81006c-2.62799,0-4.61499-1.987-4.61499-4.88501,0-2.89697,1.987-4.88495,4.61499-4.88495,2.59399,0,4.61499,1.98798,4.61499,4.88495,0,2.89801-2.021,4.88501-4.61499,4.88501Z"/>
      <path class="cls-1" d="M323.0661,187.02869v-1.85199h-3.604v15.49799h3.604v-8.72601c0-2.22498.742-3.70697,2.56104-3.70697.87598,0,1.38196.26996,2.05597.80896l1.78497-3.06598c-.70697-.80798-1.75195-1.17902-2.86298-1.17902-1.315,0-2.62897.84198-3.539,2.22302Z"/>
      <polygon class="cls-1" points="336.00281 179.78528 332.43079 179.78528 332.43079 185.17627 329.80377 185.17627 329.80377 188.37628 332.43079 188.37628 332.43079 200.67426 336.00281 200.67426 336.00281 188.37628 338.5968 188.37628 338.5968 185.17627 336.00281 185.17627 336.00281 179.78528"/>
      <path class="cls-1" d="M351.1637,194.60956c0,2.08899-1.38098,3.47003-3.43701,3.47003-1.95398,0-2.89697-1.24603-2.89697-3.47003v-9.43298h-3.74103v9.83801c0,3.70599,1.92102,5.99701,5.39099,5.99701,2.15601,0,3.67303-.94403,4.68402-2.729v2.39197h3.638v-15.49799h-3.638v9.43298Z"/>
      <path class="cls-1" d="M371.10651,187.70227c-1.14404-1.85199-3.03101-2.86298-5.289-2.86298-4.04303,0-7.547,2.89795-7.547,7.98395,0,5.12201,3.50397,8.02002,7.547,8.02002,2.258,0,4.14496-1.01196,5.289-2.86401v2.35803c0,3.47101-2.25702,5.05402-4.51404,5.05402-2.62799,0-4.31201-1.58301-4.38-3.67303h-3.63898c.16901,4.04303,3.03302,6.84003,8.086,6.84003,4.21198,0,8.01898-2.62799,8.01898-8.22101v-15.16101h-3.57196v2.526ZM366.69348,197.67529c-2.526,0-4.64899-1.71802-4.64899-4.85205,0-3.099,2.12299-4.81696,4.64899-4.81696,2.12201,0,4.41302,1.685,4.41302,4.81696,0,3.16803-2.29102,4.85205-4.41302,4.85205Z"/>
      <path class="cls-1" d="M385.42499,184.80566c-2.89801,0-5.15399,1.01001-6.57001,1.85303l1.48199,2.56097c.67401-.505,2.52704-1.44897,4.71704-1.44897,1.92096,0,3.30298.67401,3.30298,2.56097v1.88702c-.97797-.54004-2.45996-1.07904-4.48199-1.07904-3.841,0-6.06396,1.92004-6.06396,4.91803,0,3.16797,2.49298,4.95398,5.42395,4.95398,1.98804,0,4.14404-.80896,5.12201-2.45898v2.12201h3.57001v-11.05103c0-3.06598-2.729-4.81799-6.50201-4.81799ZM388.35699,194.50964c0,2.35706-1.82098,3.77301-3.97699,3.77301-1.68402,0-2.896-.87695-2.896-2.42596,0-1.44904.97601-2.32501,3.26697-2.32501,1.315,0,2.49304.23499,3.60602.74097v.237Z"/>
      <rect class="cls-1" x="396.17102" y="174.39569" width="3.67297" height="26.27899"/>
    </g>
  </g>
</svg>